<?xml version="1.0" encoding="UTF-8" standalone="no"?>
<svg
   class="icon"
   width="24"
   height="24"
   viewBox="0 0 122.88 122.88"
   version="1.1"
   id="svg1"
   sodipodi:docname="delete.svg"
   inkscape:version="1.4 (86a8ad7, 2024-10-11)"
   xmlns:inkscape="http://www.inkscape.org/namespaces/inkscape"
   xmlns:sodipodi="http://sodipodi.sourceforge.net/DTD/sodipodi-0.dtd"
   xmlns="http://www.w3.org/2000/svg"
   xmlns:svg="http://www.w3.org/2000/svg">
  <defs
     id="defs1" />
  <sodipodi:namedview
     id="namedview1"
     pagecolor="#ffffff"
     bordercolor="#000000"
     borderopacity="0.25"
     inkscape:showpageshadow="2"
     inkscape:pageopacity="0.0"
     inkscape:pagecheckerboard="0"
     inkscape:deskcolor="#d1d1d1"
     inkscape:zoom="2.765"
     inkscape:cx="99.819168"
     inkscape:cy="100"
     inkscape:window-width="1366"
     inkscape:window-height="705"
     inkscape:window-x="-8"
     inkscape:window-y="-8"
     inkscape:window-maximized="1"
     inkscape:current-layer="svg1" />
  <path
     d="M 103.82912,23.03875 H 80.646864 V 18.819162 C 80.646864,14.079625 76.80649,10.24 72.066027,10.24 H 50.823956 c -4.740462,0 -8.580836,3.839625 -8.580836,8.579162 V 23.03875 H 19.06086 c -4.870475,0 -8.82086,3.949614 -8.82086,8.819139 v 7.969222 c 0,4.869524 3.950385,8.819139 8.82086,8.819139 l 3.980388,-1e-6 v 52.544871 c 0,6.32938 5.130501,11.44888 11.451115,11.44888 h 53.895256 c 6.330617,0 11.451116,-5.1295 11.451116,-11.44888 V 48.63625 h 3.980385 c 4.87048,0 8.82086,-3.949614 8.82086,-8.819138 V 31.84789 c 0.01,-4.869525 -3.94038,-8.80914 -8.81086,-8.80914 z M 48.643744,18.809163 c 0,-1.199883 0.980095,-2.179787 2.180212,-2.179787 h 21.252073 c 1.200117,0 2.180212,0.979904 2.180212,2.179787 v 4.219588 H 48.643744 Z m 44.804368,82.361957 c 0,2.78973 -2.270221,5.04951 -5.050492,5.04951 H 34.492364 c -2.790271,0 -5.050491,-2.26978 -5.050491,-5.04951 V 48.63625 H 42.24312 v 47.995313 c 0,1.769828 1.43014,3.199688 3.200311,3.199688 1.770173,0 3.200313,-1.42986 3.200313,-3.199688 V 48.63625 h 9.600935 v 47.995313 c 0,1.769828 1.43014,3.199688 3.200313,3.199688 1.770173,0 3.200311,-1.42986 3.200311,-3.199688 V 48.63625 h 9.600936 v 47.995313 c 0,1.769828 1.430139,3.199688 3.200314,3.199688 1.770171,0 3.200311,-1.42986 3.200311,-3.199688 V 48.63625 H 93.448112 Z M 106.24936,39.817112 c 0,1.32987 -1.08011,2.419763 -2.42024,2.419763 H 99.848736 74.246239 48.643744 23.041248 19.06086 c -1.33013,0 -2.420236,-1.079894 -2.420236,-2.419763 V 31.84789 c 0,-1.32987 1.080105,-2.419764 2.420236,-2.419764 h 23.18226 38.403744 23.182256 c 1.33013,0 2.42024,1.079895 2.42024,2.419764 z"
     id="path1"
     style="stroke-width:0.10001" />
</svg>
