<?xml version="1.0" encoding="UTF-8" standalone="no"?>
<svg
   class="icon"
   width="24"
   height="24"
   viewBox="0 0 122.88 122.88"
   version="1.1"
   id="svg1"
   sodipodi:docname="setting.svg"
   inkscape:version="1.4 (86a8ad7, 2024-10-11)"
   xmlns:inkscape="http://www.inkscape.org/namespaces/inkscape"
   xmlns:sodipodi="http://sodipodi.sourceforge.net/DTD/sodipodi-0.dtd"
   xmlns="http://www.w3.org/2000/svg"
   xmlns:svg="http://www.w3.org/2000/svg">
  <defs
     id="defs1" />
  <sodipodi:namedview
     id="namedview1"
     pagecolor="#ffffff"
     bordercolor="#000000"
     borderopacity="0.25"
     inkscape:showpageshadow="2"
     inkscape:pageopacity="0.0"
     inkscape:pagecheckerboard="0"
     inkscape:deskcolor="#d1d1d1"
     inkscape:zoom="2.765"
     inkscape:cx="99.819168"
     inkscape:cy="100"
     inkscape:window-width="1366"
     inkscape:window-height="705"
     inkscape:window-x="-8"
     inkscape:window-y="-8"
     inkscape:window-maximized="1"
     inkscape:current-layer="svg1" />
  <path
     d="m 61.441309,13.165715 c 1.46033,0 2.938766,0.06839 4.4172,0.205166 l 8.343599,8.753737 2.458021,2.578652 3.560314,-0.08649 12.090981,-0.289646 a 48.597243,48.596113 0 0 1 6.245627,6.245486 l -0.289652,12.090696 -0.08649,3.56023 2.578711,2.457966 8.75395,8.343404 a 48.023973,48.022857 0 0 1 -0.002,8.832184 l -8.75395,8.343406 -2.578711,2.457964 0.08649,3.560231 0.289652,12.090694 a 48.597243,48.596113 0 0 1 -6.245627,6.245485 l -12.090981,-0.289645 -3.560314,-0.08649 -2.458022,2.578655 -8.343599,8.75575 a 48.023973,48.022857 0 0 1 -8.832242,-0.004 l -8.343557,-8.75575 -2.458023,-2.578652 -3.56031,0.08649 -12.090979,0.289644 a 48.597243,48.596113 0 0 1 -6.24563,-6.245484 l 0.289652,-12.090695 0.08649,-3.56023 -2.57871,-2.457966 -8.75394,-8.343407 a 48.023973,48.022857 0 0 1 0.0021,-8.83017 l 8.75394,-8.343407 2.578712,-2.457966 -0.08649,-3.560228 -0.289652,-12.090696 a 48.597243,48.596113 0 0 1 6.24563,-6.245485 l 12.090979,0.289647 3.56031,0.08649 2.458024,-2.578651 8.3436,-8.753737 A 48.659599,48.658469 0 0 1 61.4416,13.165742 m 0,72.411426 c 13.30993,0 24.137707,-10.82752 24.137707,-24.13714 0,-13.309624 -10.827777,-24.137144 -24.137707,-24.137144 -13.309932,0 -24.137704,10.82752 -24.137704,24.137144 0,13.30962 10.827772,24.13714 24.137704,24.13714 m 0,-80.4571401 c -2.801986,0 -5.553683,0.2112 -8.247049,0.6074514 L 42.857288,16.575087 27.877832,16.215041 A 56.669294,56.667977 0 0 0 16.215299,27.877304 L 16.575353,42.856411 5.7274656,53.193144 A 56.610961,56.609646 0 0 0 5.12,61.440001 c 0,2.80192 0.2112049,5.553554 0.6074656,8.246857 L 16.575353,80.023591 16.215299,95.002695 a 56.621018,56.619703 0 0 0 11.662533,11.662265 l 14.979456,-0.36004 10.338983,10.84763 c 2.691355,0.39625 5.443052,0.60745 8.245038,0.60745 2.801986,0 5.553683,-0.2112 8.247049,-0.60745 l 10.338984,-10.84763 14.979458,0.36004 a 56.669294,56.667977 0 0 0 11.66253,-11.662265 l -0.36005,-14.979104 10.84789,-10.336733 a 56.610961,56.609646 0 0 0 -0.002,-16.493714 L 106.30708,42.856411 106.66713,27.877304 A 56.669294,56.667977 0 0 0 95.004783,16.215041 L 80.025332,16.575087 69.688358,5.7274524 A 56.610961,56.609646 0 0 0 61.441309,5.120001 Z m 0,72.4114321 a 16.091804,16.091431 0 1 1 0,-32.182862 16.091804,16.091431 0 0 1 0,32.182862 z"
     fill="#231815"
     id="path1"
     style="stroke-width:0.125716" />
</svg>
