<?xml version="1.0" standalone="no"?><!DOCTYPE svg PUBLIC "-//W3C//DTD SVG 1.1//EN" "http://www.w3.org/Graphics/SVG/1.1/DTD/svg11.dtd"><svg class="icon" width="200px" height="200.00px" viewBox="0 0 1024 1024" version="1.1" xmlns="http://www.w3.org/2000/svg"><path d="M756.5 896 267.5 896c-76.9 0-139.5-62.6-139.5-139.5l0-489.1c0-76.9 62.6-139.5 139.5-139.5l489.1 0c76.9 0 139.5 62.6 139.5 139.5l0 489.1C896 833.4 833.4 896 756.5 896zM267.5 192c-41.6 0-75.5 33.9-75.5 75.5l0 489.1c0 41.6 33.9 75.5 75.5 75.5l489.1 0c41.6 0 75.5-33.9 75.5-75.5l0-489.1c0-41.6-33.9-75.5-75.5-75.5L267.5 192z" /></svg>